<?xml version="1.0" encoding="utf-8"?>
<!-- Svg Vector Icons : http://www.onlinewebfonts.com/icon -->
<!DOCTYPE svg PUBLIC "-//W3C//DTD SVG 1.1//EN" "http://www.w3.org/Graphics/SVG/1.1/DTD/svg11.dtd">
<svg version="1.1" xmlns="http://www.w3.org/2000/svg" xmlns:xlink="http://www.w3.org/1999/xlink" x="0px" y="0px" viewBox="0 0 1000 1000" enable-background="new 0 0 1000 1000" xml:space="preserve">
<metadata> Svg Vector Icons : http://www.onlinewebfonts.com/icon </metadata>
<g><g transform="translate(0.000000,511.000000) scale(0.100000,-0.100000)"><path style="fill:white;" d="M6501.5,5072.4c-228.5-82-355.4-275.4-673.8-1027.2c-240.2-572.2-263.6-605.4-580-837.8c-208.9-154.3-562.4-392.5-646.4-435.5c-91.8-46.9-482.4-173.8-513.6-167.9c-17.6,3.9,17.6,31.2,76.2,62.5c226.5,123,423.8,373,515.6,656.2c46.9,140.6,46.9,435.5,0,595.6c-136.7,470.6-564.4,792.9-1054.6,792.9c-306.6,0-560.5-105.5-779.2-324.2c-212.9-212.9-312.5-460.9-310.5-771.4c0-277.3,66.4-468.7,238.2-683.5c162.1-203.1,398.4-345.7,646.4-390.6c80.1-13.7,74.2-15.6-68.3-17.6c-572.2-9.8-902.2-109.4-1111.2-333.9c-199.2-216.8-675.7-937.4-804.6-1218.6c-56.6-125-74.2-224.6-113.3-646.4c-52.7-572.2-76.2-980.3-66.4-1203c7.8-191.4,15.6-238.2,62.5-335.9c150.4-312.5,539-347.6,728.4-64.5c95.7,140.6,85.9,95.7,220.7,1054.6c48.8,351.5,68.3,445.3,109.4,521.4c74.2,134.7,322.2,433.5,343.7,412.1c9.8-9.8,15.6-257.8,11.7-562.4l-5.9-546.8l-201.1-351.5c-263.6-460.9-548.8-904.2-609.3-949.1c-27.3-19.5-214.8-80.1-419.9-134.8c-626.9-166-992.1-273.4-1068.2-312.5C240.6-2243.1,100-2456,100-2643.5c0-201.1,97.6-369.1,261.7-449.2c207-101.6,380.8-89.8,1417.8,99.6c570.2,103.5,847.5,166,927.6,209c142.6,74.2,429.6,376.9,716.7,755.8c87.9,117.2,164,209,167.9,207c7.8-7.8-44.9-326.2-78.1-470.7c-11.7-52.7-39.1-132.8-60.5-175.8c-84-166-607.3-917.9-966.7-1386.5c-195.3-253.9-236.3-335.9-238.3-470.6c0-234.3,128.9-441.4,324.2-513.6c126.9-48.8,201.1-50.8,332-11.7c197.2,58.6,333.9,191.4,1119,1083.8c533.1,605.4,699.1,806.5,736.2,894.4c111.3,261.7,240.2,886.6,310.5,1497.9c50.8,443.3,68.4,956.9,66.4,1950.9v935.4l250,183.6c480.4,353.5,824.1,652.3,972.5,845.6c117.2,152.3,416,800.7,580,1259.6c107.4,298.8,152.3,511.7,152.3,734.3c0,169.9-5.9,197.2-58.6,304.6C6925.3,5052.8,6712.4,5146.6,6501.5,5072.4z M6681.2,4652.5c41-80.1,9.8-332-80.1-607.3c-125-386.7-468.7-1148.3-580-1286.9c-117.2-140.6-419.9-400.3-794.8-679.6c-193.3-142.6-380.8-285.1-417.9-314.4l-66.4-54.7l-5.9-1169.8c-3.9-1099.5-19.5-1527.2-68.3-1923.6c-72.3-583.9-216.8-1245.9-296.8-1359.2c-177.7-251.9-1398.3-1615-1513.5-1691.2c-84-54.7-154.3-44.9-189.4,25.4c-17.6,33.2-27.3,72.3-21.5,87.9c5.9,15.6,87.9,130.8,183.6,255.8c412.1,548.7,896.4,1247.9,988.2,1427.5c78.1,156.2,148.4,505.8,214.8,1097.5c44.9,390.6,44.9,648.4,0,710.8c-48.8,64.5-126.9,91.8-205,70.3c-87.9-25.4-111.3-50.8-185.5-207c-150.4-316.3-628.8-974.5-935.4-1288.9l-175.8-179.6l-175.8-39.1c-212.9-48.8-1076-207-1351.4-248c-345.7-50.8-513.6-35.1-513.6,50.8c0,44.9,62.5,136.7,113.3,162.1c62.5,31.3,357.4,119.1,736.2,216.8c427.7,111.3,675.7,185.5,753.8,226.5c39.1,19.5,107.4,76.2,152.3,126.9c125,142.5,597.6,910,787,1277.2l84,166L3123,237c3.9,402.3,0,814.3-5.9,913.9c-11.7,162.1-19.5,189.4-66.4,242.2c-44.9,50.8-68.3,60.5-140.6,60.5c-84,0-89.8-5.8-257.8-183.6C2412.2,1014.3,2090,610,2017.7,477.2c-72.3-138.6-101.6-285.1-187.5-933.5c-66.4-503.8-89.8-615.2-128.9-615.2c-9.8,0-25.4,23.4-33.2,54.7c-31.2,107.4,0,787,64.5,1439.3c27.3,273.4,39.1,328.1,91.8,429.6c150.4,300.7,603.4,972.5,738.2,1093.6c126.9,115.2,275.4,146.5,769.4,167.9c585.9,25.4,831.9,70.3,1281.1,232.4c177.7,64.4,423.8,214.8,824.1,503.8c425.7,306.6,490.2,396.4,775.3,1078C6480,4570.5,6612.8,4775.5,6681.2,4652.5z M3798.7,4289.2c207-54.7,375-197.2,466.7-396.4c33.2-72.3,43-128.9,43-267.5c0-152.3-7.8-191.4-56.6-298.8c-195.3-423.8-748-533.1-1095.6-216.8c-146.5,136.7-210.9,271.4-220.7,474.5c-9.8,179.7,31.2,316.4,132.8,455c113.3,152.3,351.5,273.4,546.8,277.3C3654.2,4318.5,3736.3,4304.9,3798.7,4289.2z"/></g></g>
</svg>